{"title":"Person of Interest S04E05 Prophets 720p HDTV X265","uid":11261964,"size":341795722,"categoryP":"video","categoryS":"hd___tv_shows","magnet":"?xt=urn:btih:a111d5b0a03a4298ffb17cf316aa97a770e6f034&amp;dn=Person+of+Interest+S04E05+Prophets+720p+HDTV+X265&amp;tr=udp%3A%2F%2Ftracker.openbittorrent.com%3A80&amp;tr=udp%3A%2F%2Fopen.demonii.com%3A1337&amp;tr=udp%3A%2F%2Ftracker.coppersurfer.tk%3A6969&amp;tr=udp%3A%2F%2Fexodus.desync.com%3A6969","seeders":3,"leechers":0,"uploader":"atm50","files":-1,"time":1413978836,"description":"Because of his penchant for gunfire, Reese is placed under mandatory therapy and surveillance by Internal Affairs. \n\nHe may find it difficult to lie to the therapist, Dr. Iris Campbell, about his undercover life. As Reese is \n\npreoccupied with these matters as well as the mountain of paperwork from those shootings, Finch assigns the next \n\nnumber to Shaw. That number belongs to Simon Lee, a pollster for Governor James Murray, who is seeking reelection.\n\nSource: Person of Interest S04E05 720p HDTV X264-DIMENSION\n\nFormat                         : MPEG-4\nFile size                      : 326 MiB\nDuration                       : 43mn 29s\nOverall bit rate               : 1 048 Kbps\n\nVideo\n\nFormat                         : HEVC [X265]\nBit rate                       : 790 Kbps\nMaximum bit rate               : 10.4 Mbps\nWidth                          : 1 280 pixels\nHeight                         : 720 pixels\nDisplay aspect ratio           : 16:9\nFrame rate                     : 23.976 fps\nStream size                    : 246 MiB (75%)\n\nAudio\n\nFormat                         : AC-3\nBit rate                       : 256 Kbps\nChannel(s)                     : 6 channels (5.1)\nSampling rate                  : 48.0 KHz\nBit depth                      : 16 bits\nCompression mode               : Lossy\nStream size                    : 79.6 MiB (24%)\n\nSubtitles: English (External)","torrent":{"xt":"urn:btih:a111d5b0a03a4298ffb17cf316aa97a770e6f034","amp;dn":"Person+of+Interest+S04E05+Prophets+720p+HDTV+X265","amp;tr":["udp%3A%2F%2Ftracker.openbittorrent.com%3A80","udp%3A%2F%2Fopen.demonii.com%3A1337","udp%3A%2F%2Ftracker.coppersurfer.tk%3A6969","udp%3A%2F%2Fexodus.desync.com%3A6969"],"infoHash":"a111d5b0a03a4298ffb17cf316aa97a770e6f034","infoHashBuffer":{"type":"Buffer","data":[161,17,213,176,160,58,66,152,255,177,124,243,22,170,151,167,112,230,240,52]},"announce":[],"urlList":[]}}